<svg width="0" height="0" class="hidden">
  <symbol fill="none" xmlns="http://www.w3.org/2000/svg" viewBox="0 0 54 56" id="button_left">
    <rect x="1" y="1" width="52" height="54" rx="26" stroke="#959EAD" stroke-width="2"></rect>
    <path d="M27.317 34.938c.312-.313.281-.782 0-1.094l-3.781-3.594h9a.74.74 0 00.75-.75v-1a.76.76 0 00-.75-.75h-9l3.78-3.563c.282-.312.313-.78 0-1.093l-.687-.688a.775.775 0 00-1.062 0L19.504 28.5a.684.684 0 000 1.031l6.063 6.094c.281.281.75.281 1.062 0l.688-.688z" fill="#959EAD"></path>
  </symbol>
  <symbol fill="none" xmlns="http://www.w3.org/2000/svg" viewBox="0 0 56 56" id="button_right">
    <rect x="1" y="1" width="54" height="54" rx="27" stroke="#183B56" stroke-width="2"></rect>
    <path d="M26.938 23.094c-.313.312-.282.781 0 1.093l3.78 3.563H21.75a.74.74 0 00-.75.75v1c0 .438.313.75.75.75h8.969l-3.782 3.594a.814.814 0 000 1.093l.688.688c.313.281.781.281 1.063 0l6.093-6.094c.282-.281.282-.75 0-1.062l-6.093-6.063c-.282-.281-.75-.281-1.063 0l-.688.688z" fill="#183B56"></path>
  </symbol>
    <symbol fill="none" xmlns="http://www.w3.org/2000/svg" viewBox="0 0 16 12" id="email">
    <path d="M15.688 3.969c-.72.562-1.626 1.25-4.813 3.562C10.25 8 9.094 9.031 8 9.031c-1.125 0-2.25-1.031-2.906-1.5C1.906 5.22 1 4.531.28 3.97c-.125-.094-.281 0-.281.156V10.5c0 .844.656 1.5 1.5 1.5h13a1.5 1.5 0 001.5-1.5V4.125c0-.156-.188-.25-.313-.156zM8 8c.719.031 1.75-.906 2.281-1.281 4.156-3 4.469-3.282 5.406-4.032A.711.711 0 0016 2.095V1.5c0-.813-.688-1.5-1.5-1.5h-13A1.5 1.5 0 000 1.5v.594c0 .25.094.469.281.594.938.75 1.25 1.03 5.407 4.03C6.218 7.095 7.25 8.032 8 8z" fill="#183B56"></path>
  </symbol>
  <symbol fill="none" xmlns="http://www.w3.org/2000/svg" viewBox="0 0 40 41" id="linkedin">
    <g clip-path="url(#clip0)" fill="#5A7184">
      <rect opacity=".1" y=".404" width="40" height="40" rx="20"></rect>
      <path d="M26.333 13.738H14.302c-.531 0-.969.468-.969 1.03v11.97c0 .562.438 1 .969 1h12.031c.532 0 1-.438 1-1v-11.97c0-.562-.468-1.03-1-1.03zm-8.781 12h-2.063V19.08h2.063v6.657zm-1.031-7.594c-.688 0-1.219-.531-1.219-1.188a1.22 1.22 0 011.219-1.218c.656 0 1.187.562 1.187 1.218 0 .657-.531 1.188-1.187 1.188zm8.812 7.594H23.24v-3.25c0-.75 0-1.75-1.063-1.75-1.094 0-1.25.843-1.25 1.718v3.282h-2.063V19.08h1.97v.907h.03c.282-.532.97-1.094 1.97-1.094 2.093 0 2.5 1.406 2.5 3.187v3.657z"></path>
    </g>
    <defs>
      <clipPath id="clip0">
        <path fill="#fff" transform="translate(0 .404)" d="M0 0h40v40.06H0z"></path>
      </clipPath>
    </defs>
  </symbol>
  <symbol fill="none" xmlns="http://www.w3.org/2000/svg" viewBox="0 0 40 41" id="instagram">
    <g clip-path="url(#clip0)" fill="#5A7184">
      <rect opacity=".1" y=".404" width="40" height="40" rx="20"></rect>
      <path d="M20.333 17.144c-2 0-3.593 1.625-3.593 3.594 0 2 1.593 3.593 3.593 3.593a3.594 3.594 0 003.594-3.593c0-1.97-1.625-3.594-3.594-3.594zm0 5.937a2.34 2.34 0 01-2.343-2.343c0-1.282 1.03-2.313 2.343-2.313a2.307 2.307 0 012.313 2.313c0 1.312-1.032 2.343-2.313 2.343zm4.563-6.062a.84.84 0 00-.844-.844.84.84 0 00-.844.844.84.84 0 00.844.844.84.84 0 00.844-.844zm2.375.844c-.063-1.125-.313-2.125-1.125-2.938-.813-.813-1.813-1.063-2.938-1.125-1.156-.063-4.625-.063-5.781 0-1.125.063-2.094.313-2.938 1.125-.812.813-1.062 1.813-1.125 2.938-.062 1.156-.062 4.625 0 5.78.063 1.126.313 2.095 1.125 2.938.844.813 1.813 1.063 2.938 1.125 1.156.063 4.625.063 5.781 0 1.125-.062 2.125-.312 2.938-1.125.812-.843 1.062-1.812 1.125-2.937.062-1.156.062-4.625 0-5.781zm-1.5 7c-.219.625-.719 1.093-1.313 1.343-.937.375-3.125.282-4.125.282-1.031 0-3.218.093-4.125-.282a2.37 2.37 0 01-1.343-1.343c-.376-.907-.282-3.094-.282-4.125 0-1-.094-3.188.281-4.125a2.41 2.41 0 011.344-1.313c.907-.375 3.094-.281 4.125-.281 1 0 3.188-.094 4.125.281.594.219 1.063.719 1.313 1.313.375.937.281 3.125.281 4.125 0 1.03.094 3.218-.281 4.125z"></path>
    </g>
    <defs>
      <clipPath id="clip0">
        <path fill="#fff" transform="translate(0 .404)" d="M0 0h40v40.06H0z"></path>
      </clipPath>
    </defs>
  </symbol>
  <symbol fill="none" xmlns="http://www.w3.org/2000/svg" viewBox="0 0 42 41" id="twitter">
    <g clip-path="url(#clip0)" fill="#5A7184">
      <rect opacity=".1" y=".404" width="42" height="40" rx="20"></rect>
      <path d="M27.677 17.488a6.948 6.948 0 001.625-1.688 6.15 6.15 0 01-1.875.5 3.206 3.206 0 001.438-1.813 6.928 6.928 0 01-2.063.813 3.281 3.281 0 00-2.406-1.031 3.28 3.28 0 00-3.282 3.281c0 .25.032.5.094.75a9.52 9.52 0 01-6.781-3.438 3.193 3.193 0 00-.438 1.657c0 1.125.563 2.125 1.47 2.719-.532-.032-1.063-.157-1.5-.407v.032a3.285 3.285 0 002.624 3.218c-.25.063-.562.125-.843.125-.22 0-.407-.031-.626-.062a3.265 3.265 0 003.063 2.281 6.597 6.597 0 01-4.063 1.406c-.28 0-.53-.031-.78-.062 1.437.937 3.155 1.469 5.03 1.469 6.032 0 9.313-4.97 9.313-9.313v-.438z"></path>
    </g>
    <defs>
      <clipPath id="clip0">
        <path fill="#fff" transform="translate(0 .404)" d="M0 0h42v40.06H0z"></path>
      </clipPath>
    </defs>
  </symbol>
  <symbol fill="none" xmlns="http://www.w3.org/2000/svg" viewBox="0 0 42 41" id="google">
    <g clip-path="url(#clip0)" fill="#5A7184">
      <rect opacity=".1" y=".404" width="42" height="40" rx="20"></rect>
      <path d="M28.958 20.925c0-.5-.062-.875-.125-1.281h-7.375V22.3h4.375c-.156 1.156-1.312 3.344-4.375 3.344-2.656 0-4.812-2.188-4.812-4.906 0-4.344 5.125-6.344 7.875-3.688l2.125-2.031a7.517 7.517 0 00-5.188-2.031 7.729 7.729 0 00-7.75 7.75 7.709 7.709 0 007.75 7.75c4.469 0 7.5-3.125 7.5-7.563z"></path>
    </g>
    <defs>
      <clipPath id="clip0">
        <path fill="#fff" transform="translate(0 .404)" d="M0 0h42v40.06H0z"></path>
      </clipPath>
    </defs>
  </symbol>
  <symbol xmlns="http://www.w3.org/2000/svg" viewBox="0 0 512 512" id="apple">
    <path d="M185.255 512c-76.201-.439-139.233-155.991-139.233-235.21 0-129.404 97.075-157.734 134.487-157.734 16.86 0 34.863 6.621 50.742 12.48 11.104 4.087 22.588 8.306 28.975 8.306 3.823 0 12.832-3.589 20.786-6.738 16.963-6.753 38.071-15.146 62.651-15.146h.146c18.354 0 74.004 4.028 107.461 54.272l7.837 11.777-11.279 8.511c-16.113 12.158-45.513 34.336-45.513 78.267 0 52.031 33.296 72.041 49.292 81.665 7.061 4.248 14.37 8.628 14.37 18.208 0 6.255-49.922 140.566-122.417 140.566-17.739 0-30.278-5.332-41.338-10.034-11.191-4.761-20.845-8.862-36.797-8.862-8.086 0-18.311 3.823-29.136 7.881C221.496 505.73 204.752 512 185.753 512h-.498zM351.343 0c1.888 68.076-46.797 115.304-95.425 112.342C247.905 58.015 304.54 0 351.343 0z"></path>
  </symbol>
    <symbol fill="#fff" xmlns="http://www.w3.org/2000/svg" viewBox="0 0 10 18" id="arrow-next">
    <path fill-rule="evenodd" clip-rule="evenodd" d="M.366.616a1.25 1.25 0 011.768 0l7.5 7.5a1.25 1.25 0 010 1.768l-7.5 7.5a1.25 1.25 0 01-1.768-1.768L6.982 9 .366 2.384a1.25 1.25 0 010-1.768z" fill-opacity=".8"></path>
  </symbol>
  <symbol fill="none" xmlns="http://www.w3.org/2000/svg" viewBox="0 0 10 18" id="arrow-prev">
    <path fill-rule="evenodd" clip-rule="evenodd" d="M9.634.616a1.25 1.25 0 010 1.768L3.018 9l6.616 6.616a1.25 1.25 0 01-1.768 1.768l-7.5-7.5a1.25 1.25 0 010-1.768l7.5-7.5a1.25 1.25 0 011.768 0z" fill="#fff" fill-opacity=".8"></path>
  </symbol>
</svg>