<svg width="0" height="0" class="hidden">
  <symbol fill="none" xmlns="http://www.w3.org/2000/svg" viewBox="0 0 54 56" id="button_left">
    <rect x="1" y="1" width="52" height="54" rx="26" stroke="#959EAD" stroke-width="2"></rect>
    <path d="M27.317 34.938c.312-.313.281-.782 0-1.094l-3.781-3.594h9a.74.74 0 00.75-.75v-1a.76.76 0 00-.75-.75h-9l3.78-3.563c.282-.312.313-.78 0-1.093l-.687-.688a.775.775 0 00-1.062 0L19.504 28.5a.684.684 0 000 1.031l6.063 6.094c.281.281.75.281 1.062 0l.688-.688z" fill="#959EAD"></path>
  </symbol>
  <symbol fill="none" xmlns="http://www.w3.org/2000/svg" viewBox="0 0 56 56" id="button_right">
    <rect x="1" y="1" width="54" height="54" rx="27" stroke="#183B56" stroke-width="2"></rect>
    <path d="M26.938 23.094c-.313.312-.282.781 0 1.093l3.78 3.563H21.75a.74.74 0 00-.75.75v1c0 .438.313.75.75.75h8.969l-3.782 3.594a.814.814 0 000 1.093l.688.688c.313.281.781.281 1.063 0l6.093-6.094c.282-.281.282-.75 0-1.062l-6.093-6.063c-.282-.281-.75-.281-1.063 0l-.688.688z" fill="#183B56"></path>
  </symbol>
    <symbol fill="none" xmlns="http://www.w3.org/2000/svg" viewBox="0 0 16 12" id="email">
    <path d="M15.688 3.969c-.72.562-1.626 1.25-4.813 3.562C10.25 8 9.094 9.031 8 9.031c-1.125 0-2.25-1.031-2.906-1.5C1.906 5.22 1 4.531.28 3.97c-.125-.094-.281 0-.281.156V10.5c0 .844.656 1.5 1.5 1.5h13a1.5 1.5 0 001.5-1.5V4.125c0-.156-.188-.25-.313-.156zM8 8c.719.031 1.75-.906 2.281-1.281 4.156-3 4.469-3.282 5.406-4.032A.711.711 0 0016 2.095V1.5c0-.813-.688-1.5-1.5-1.5h-13A1.5 1.5 0 000 1.5v.594c0 .25.094.469.281.594.938.75 1.25 1.03 5.407 4.03C6.218 7.095 7.25 8.032 8 8z" fill="#183B56"></path>
  </symbol>
  <symbol fill="none" xmlns="http://www.w3.org/2000/svg" viewBox="0 0 40 41" id="linkedin">
    <g clip-path="url(#clip0)" fill="#5A7184">
      <rect opacity=".1" y=".404" width="40" height="40" rx="20"></rect>
      <path d="M26.333 13.738H14.302c-.531 0-.969.468-.969 1.03v11.97c0 .562.438 1 .969 1h12.031c.532 0 1-.438 1-1v-11.97c0-.562-.468-1.03-1-1.03zm-8.781 12h-2.063V19.08h2.063v6.657zm-1.031-7.594c-.688 0-1.219-.531-1.219-1.188a1.22 1.22 0 011.219-1.218c.656 0 1.187.562 1.187 1.218 0 .657-.531 1.188-1.187 1.188zm8.812 7.594H23.24v-3.25c0-.75 0-1.75-1.063-1.75-1.094 0-1.25.843-1.25 1.718v3.282h-2.063V19.08h1.97v.907h.03c.282-.532.97-1.094 1.97-1.094 2.093 0 2.5 1.406 2.5 3.187v3.657z"></path>
    </g>
    <defs>
      <clipPath id="clip0">
        <path fill="#fff" transform="translate(0 .404)" d="M0 0h40v40.06H0z"></path>
      </clipPath>
    </defs>
  </symbol>
  <symbol fill="none" xmlns="http://www.w3.org/2000/svg" viewBox="0 0 40 41" id="instagram">
    <g clip-path="url(#clip0)" fill="#5A7184">
      <rect opacity=".1" y=".404" width="40" height="40" rx="20"></rect>
      <path d="M20.333 17.144c-2 0-3.593 1.625-3.593 3.594 0 2 1.593 3.593 3.593 3.593a3.594 3.594 0 003.594-3.593c0-1.97-1.625-3.594-3.594-3.594zm0 5.937a2.34 2.34 0 01-2.343-2.343c0-1.282 1.03-2.313 2.343-2.313a2.307 2.307 0 012.313 2.313c0 1.312-1.032 2.343-2.313 2.343zm4.563-6.062a.84.84 0 00-.844-.844.84.84 0 00-.844.844.84.84 0 00.844.844.84.84 0 00.844-.844zm2.375.844c-.063-1.125-.313-2.125-1.125-2.938-.813-.813-1.813-1.063-2.938-1.125-1.156-.063-4.625-.063-5.781 0-1.125.063-2.094.313-2.938 1.125-.812.813-1.062 1.813-1.125 2.938-.062 1.156-.062 4.625 0 5.78.063 1.126.313 2.095 1.125 2.938.844.813 1.813 1.063 2.938 1.125 1.156.063 4.625.063 5.781 0 1.125-.062 2.125-.312 2.938-1.125.812-.843 1.062-1.812 1.125-2.937.062-1.156.062-4.625 0-5.781zm-1.5 7c-.219.625-.719 1.093-1.313 1.343-.937.375-3.125.282-4.125.282-1.031 0-3.218.093-4.125-.282a2.37 2.37 0 01-1.343-1.343c-.376-.907-.282-3.094-.282-4.125 0-1-.094-3.188.281-4.125a2.41 2.41 0 011.344-1.313c.907-.375 3.094-.281 4.125-.281 1 0 3.188-.094 4.125.281.594.219 1.063.719 1.313 1.313.375.937.281 3.125.281 4.125 0 1.03.094 3.218-.281 4.125z"></path>
    </g>
    <defs>
      <clipPath id="clip0">
        <path fill="#fff" transform="translate(0 .404)" d="M0 0h40v40.06H0z"></path>
      </clipPath>
    </defs>
  </symbol>
  <symbol fill="none" xmlns="http://www.w3.org/2000/svg" viewBox="0 0 42 41" id="twitter">
    <g clip-path="url(#clip0)" fill="#5A7184">
      <rect opacity=".1" y=".404" width="42" height="40" rx="20"></rect>
      <path d="M27.677 17.488a6.948 6.948 0 001.625-1.688 6.15 6.15 0 01-1.875.5 3.206 3.206 0 001.438-1.813 6.928 6.928 0 01-2.063.813 3.281 3.281 0 00-2.406-1.031 3.28 3.28 0 00-3.282 3.281c0 .25.032.5.094.75a9.52 9.52 0 01-6.781-3.438 3.193 3.193 0 00-.438 1.657c0 1.125.563 2.125 1.47 2.719-.532-.032-1.063-.157-1.5-.407v.032a3.285 3.285 0 002.624 3.218c-.25.063-.562.125-.843.125-.22 0-.407-.031-.626-.062a3.265 3.265 0 003.063 2.281 6.597 6.597 0 01-4.063 1.406c-.28 0-.53-.031-.78-.062 1.437.937 3.155 1.469 5.03 1.469 6.032 0 9.313-4.97 9.313-9.313v-.438z"></path>
    </g>
    <defs>
      <clipPath id="clip0">
        <path fill="#fff" transform="translate(0 .404)" d="M0 0h42v40.06H0z"></path>
      </clipPath>
    </defs>
  </symbol>
  <symbol fill="none" xmlns="http://www.w3.org/2000/svg" viewBox="0 0 42 41" id="google">
    <g clip-path="url(#clip0)" fill="#5A7184">
      <rect opacity=".1" y=".404" width="42" height="40" rx="20"></rect>
      <path d="M28.958 20.925c0-.5-.062-.875-.125-1.281h-7.375V22.3h4.375c-.156 1.156-1.312 3.344-4.375 3.344-2.656 0-4.812-2.188-4.812-4.906 0-4.344 5.125-6.344 7.875-3.688l2.125-2.031a7.517 7.517 0 00-5.188-2.031 7.729 7.729 0 00-7.75 7.75 7.709 7.709 0 007.75 7.75c4.469 0 7.5-3.125 7.5-7.563z"></path>
    </g>
    <defs>
      <clipPath id="clip0">
        <path fill="#fff" transform="translate(0 .404)" d="M0 0h42v40.06H0z"></path>
      </clipPath>
    </defs>
  </symbol>
  <symbol xmlns="http://www.w3.org/2000/svg" viewBox="0 0 512 512" id="apple">
    <path d="M185.255 512c-76.201-.439-139.233-155.991-139.233-235.21 0-129.404 97.075-157.734 134.487-157.734 16.86 0 34.863 6.621 50.742 12.48 11.104 4.087 22.588 8.306 28.975 8.306 3.823 0 12.832-3.589 20.786-6.738 16.963-6.753 38.071-15.146 62.651-15.146h.146c18.354 0 74.004 4.028 107.461 54.272l7.837 11.777-11.279 8.511c-16.113 12.158-45.513 34.336-45.513 78.267 0 52.031 33.296 72.041 49.292 81.665 7.061 4.248 14.37 8.628 14.37 18.208 0 6.255-49.922 140.566-122.417 140.566-17.739 0-30.278-5.332-41.338-10.034-11.191-4.761-20.845-8.862-36.797-8.862-8.086 0-18.311 3.823-29.136 7.881C221.496 505.73 204.752 512 185.753 512h-.498zM351.343 0c1.888 68.076-46.797 115.304-95.425 112.342C247.905 58.015 304.54 0 351.343 0z"></path>
  </symbol>
    <symbol fill="#fff" xmlns="http://www.w3.org/2000/svg" viewBox="0 0 10 18" id="arrow-next">
    <path fill-rule="evenodd" clip-rule="evenodd" d="M.366.616a1.25 1.25 0 011.768 0l7.5 7.5a1.25 1.25 0 010 1.768l-7.5 7.5a1.25 1.25 0 01-1.768-1.768L6.982 9 .366 2.384a1.25 1.25 0 010-1.768z" fill-opacity=".8"></path>
  </symbol>
  <symbol fill="none" xmlns="http://www.w3.org/2000/svg" viewBox="0 0 10 18" id="arrow-prev">
    <path fill-rule="evenodd" clip-rule="evenodd" d="M9.634.616a1.25 1.25 0 010 1.768L3.018 9l6.616 6.616a1.25 1.25 0 01-1.768 1.768l-7.5-7.5a1.25 1.25 0 010-1.768l7.5-7.5a1.25 1.25 0 011.768 0z" fill="#fff" fill-opacity=".8"></path>
  </symbol>
    <symbol xmlns="http://www.w3.org/2000/svg" viewBox="0 0 268.64 56.18" id="apple-developer">
    <path d="M67.006 11.45c10.474 0 16.675 6.446 16.675 17.554 0 11.133-6.177 17.676-16.675 17.676H54.58V11.45h12.427zm-6.958 30.494h6.445c7.471 0 11.597-4.566 11.597-12.891 0-8.3-4.15-12.89-11.597-12.89h-6.445v25.78zm49.57-2.808c-.708 4.663-5.25 7.862-11.06 7.862-7.47 0-12.11-5.006-12.11-13.038 0-8.056 4.664-13.281 11.89-13.281 7.105 0 11.573 4.883 11.573 12.67v1.808H91.77v.317c0 4.394 2.759 7.275 6.91 7.275 2.93 0 5.224-1.391 5.932-3.613h5.005zM91.796 31.47h12.841c-.122-3.93-2.636-6.519-6.298-6.519-3.638 0-6.275 2.637-6.543 6.519zm34.262 15.21h-5.664l-9.253-25.684h5.615l6.445 20.533h.098l6.445-20.533h5.518l-9.204 25.684zm33.102-7.544c-.708 4.663-5.249 7.862-11.06 7.862-7.47 0-12.109-5.006-12.109-13.038 0-8.056 4.663-13.281 11.89-13.281 7.105 0 11.572 4.883 11.572 12.67v1.808h-18.14v.317c0 4.394 2.76 7.275 6.91 7.275 2.93 0 5.224-1.391 5.932-3.613h5.005zm-17.822-7.666h12.842c-.122-3.93-2.637-6.519-6.299-6.519-3.638 0-6.274 2.637-6.543 6.519zm22.388-20.02h5.273v35.23h-5.273V11.45zm9.146 22.388c0-8.08 4.761-13.159 12.183-13.159 7.446 0 12.182 5.078 12.182 13.16 0 8.105-4.711 13.159-12.182 13.159s-12.183-5.054-12.183-13.16zm18.994 0c0-5.542-2.539-8.813-6.811-8.813s-6.812 3.296-6.812 8.813c0 5.567 2.54 8.814 6.812 8.814s6.811-3.247 6.811-8.814zm33.143 0c0 7.984-4.272 13.111-10.718 13.111-3.662 0-6.567-1.636-8.08-4.493h-.123v12.72h-5.273v-34.18h5.102v4.273h.098c1.465-2.759 4.59-4.541 8.179-4.541 6.518 0 10.815 5.151 10.815 13.11zm-5.42 0c0-5.2-2.685-8.618-6.787-8.618-4.028 0-6.738 3.491-6.738 8.618 0 5.176 2.71 8.643 6.738 8.643 4.102 0 6.787-3.394 6.787-8.643zm31.294 5.298c-.708 4.663-5.249 7.862-11.06 7.862-7.47 0-12.109-5.006-12.109-13.038 0-8.056 4.663-13.281 11.89-13.281 7.104 0 11.572 4.883 11.572 12.67v1.808h-18.14v.317c0 4.394 2.76 7.275 6.91 7.275 2.93 0 5.224-1.391 5.932-3.613h5.005zm-17.822-7.666h12.842c-.123-3.93-2.637-6.519-6.3-6.519-3.637 0-6.274 2.637-6.542 6.519zm21.942-10.474h5.03v4.37h.121c.806-2.905 3.15-4.638 6.177-4.638.757 0 1.392.098 1.807.195v4.932c-.415-.171-1.343-.318-2.368-.318-3.394 0-5.493 2.295-5.493 5.909V46.68h-5.274V20.996zM26.46 7.513C28.077 5.491 29.175 2.775 28.885 0c-2.367.118-5.256 1.562-6.928 3.586-1.502 1.733-2.83 4.563-2.484 7.221 2.657.23 5.312-1.328 6.987-3.294m2.395 3.813c-3.859-.23-7.14 2.19-8.983 2.19-1.844 0-4.666-2.074-7.718-2.018-3.972.059-7.659 2.305-9.674 5.877-4.147 7.147-1.095 17.748 2.937 23.568 1.959 2.88 4.318 6.05 7.428 5.937 2.938-.116 4.09-1.903 7.66-1.903 3.57 0 4.606 1.903 7.716 1.845 3.226-.058 5.242-2.881 7.2-5.764 2.246-3.282 3.166-6.452 3.224-6.626-.058-.057-6.22-2.42-6.276-9.508-.059-5.934 4.837-8.757 5.067-8.932-2.764-4.089-7.084-4.55-8.581-4.666"></path>
  </symbol>
    <symbol xmlns="http://www.w3.org/2000/svg" viewBox="0 0 482.13 482.13" id="project-management">
    <path d="M475.266 126.603h-.002l-.016-.016-31.12-4.44a8 8 0 01-3.672-14.32l25.152-18.864a8 8 0 001.6-11.2l-28.8-38.4a8 8 0 00-11.2-1.6l-25.144 18.864a8 8 0 01-12.752-7.528l4.448-31.12a8 8 0 00-6.783-9.055l-.009-.001-47.488-6.784a8 8 0 00-9.056 6.782v.002l-4.448 31.12a8 8 0 01-14.32 3.672L292.8 18.563a8 8 0 00-11.2-1.6l-24.04 18.04a154.787 154.787 0 00-32.72 0C153.614 43.144 97.759 99.946 90.816 171.299c-.216 2.264-.296 4.512-.408 6.76h-2.4a8 8 0 00-7.824 6.4l-5.528 26.288-22.144-15.272a8 8 0 00-10.2.928l-24 24a8 8 0 00-.928 10.192l15.2 22.104-26.296 5.528A8 8 0 000 266.059v32a8 8 0 006.352 7.832l26.296 5.528-15.2 22.104a8 8 0 00.928 10.192l24 24a8 8 0 0010.2.928l22.104-15.24 5.528 26.296a8 8 0 007.824 6.4h32a8 8 0 007.832-6.352l5.528-26.296 22.104 15.2a8 8 0 0010.192-.928l12.424-12.464v22.8a31.896 31.896 0 0016 27.552v44.448c0 17.673 14.327 32 32 32h32c17.673 0 32-14.327 32-32v-44.448a31.896 31.896 0 0016-27.552v-31.664a39.2 39.2 0 0118.504-32.656 153.525 153.525 0 0018.832-14.4l-10.672-11.92a136.188 136.188 0 01-16.856 12.888 55.104 55.104 0 00-25.808 46.088v31.664c0 8.837-7.163 16-16 16h-64c-8.837 0-16-7.163-16-16v-32.328a53.824 53.824 0 00-25.376-45.152c-63.407-39.842-82.511-123.541-42.669-186.948a135.593 135.593 0 01114.325-63.452 8.698 8.698 0 00-.312.872 8 8 0 001.528 5.928l18.856 25.144a7.832 7.832 0 01.48 8.88 7.952 7.952 0 01-8 3.848l-31.12-4.448a8 8 0 00-9.055 6.783l-.001.009-6.792 47.512a8.001 8.001 0 006.783 9.055l.009.001 31.12 4.448a8 8 0 013.672 14.32l-25.144 18.856a8 8 0 00-1.6 11.2l28.8 38.4a8 8 0 0011.2 1.6l25.152-18.856a8 8 0 0112.712 7.528l-4.44 31.12a8 8 0 006.782 9.056h.002l47.52 6.792c.374.048.751.072 1.128.072a8 8 0 007.928-6.864l4.44-31.12a8 8 0 0114.32-3.672l18.864 25.144a8 8 0 0011.2 1.6l38.4-28.8a8 8 0 001.6-11.2l-18.856-25.144a7.863 7.863 0 01-.48-8.88 7.768 7.768 0 018-3.84l31.12 4.44a8 8 0 009.056-6.782v-.002l6.784-47.52a8 8 0 00-6.782-9.056zM210.112 410.059h64v16h-64v-16zm0 32h64v8c0 8.837-7.163 16-16 16h-32c-8.837 0-16-7.163-16-16v-8zm-63.688-137.96a151.206 151.206 0 0013.672 9.96 39.05 39.05 0 0116.12 20.472l-17.16 17.128-16.616-11.456c-7.276-5.014-17.239-3.18-22.254 4.096a16.003 16.003 0 00-2.482 5.784l-4.192 19.976H94.496l-4.192-19.944c-1.82-8.647-10.305-14.182-18.952-12.362a16.003 16.003 0 00-5.784 2.482l-16.624 11.424-14.576-14.544 11.448-16.608c5.019-7.273 3.191-17.237-4.082-22.256a15.994 15.994 0 00-5.79-2.488L16 291.563v-19.008l19.944-4.2c8.644-1.833 14.166-10.326 12.333-18.971a15.996 15.996 0 00-2.453-5.725l-11.456-16.656 14.576-14.544 16.632 11.456c7.279 5.009 17.242 3.169 22.251-4.11a15.983 15.983 0 002.477-5.778l1.4-6.656a152.347 152.347 0 006.344 27.128c-26.323 3.138-45.118 27.022-41.98 53.345 3.138 26.323 27.022 45.118 53.345 41.98a48.004 48.004 0 0037.011-25.725zM134 292.827c-5.974 16.605-24.277 25.223-40.882 19.25-16.605-5.974-25.223-24.277-19.25-40.882a31.952 31.952 0 0130.131-21.136h.304A151.512 151.512 0 00134 292.827zm326.512-119.856l-23.2-3.312c-13.122-1.874-25.278 7.245-27.152 20.366-.9 6.301.74 12.702 4.56 17.794l14.056 18.744-25.6 19.2-14.064-18.736c-7.952-10.605-22.995-12.756-33.599-4.804a24.004 24.004 0 00-9.361 15.804l-3.24 23.232-31.672-4.528 3.312-23.2c1.879-13.121-7.235-25.281-20.356-27.159a23.998 23.998 0 00-17.804 4.559l-18.744 14.056-19.2-25.6 18.736-14.064c10.605-7.952 12.756-22.995 4.804-33.599a24.004 24.004 0 00-15.804-9.361l-23.2-3.312 4.528-31.672 23.2 3.312c13.121 1.879 25.281-7.235 27.159-20.356a23.998 23.998 0 00-4.559-17.804l-14.104-18.76 25.6-19.2 14.064 18.744c7.952 10.605 22.995 12.756 33.599 4.804a24.004 24.004 0 009.361-15.804l3.312-23.2 31.672 4.52-3.312 23.2c-1.874 13.122 7.244 25.278 20.366 27.152 6.301.9 12.702-.74 17.794-4.56l18.744-14.056 19.2 25.6-18.744 14.064c-10.605 7.952-12.756 22.995-4.804 33.599a24.004 24.004 0 0015.804 9.361l23.2 3.312-4.552 31.664z"></path>
    <path d="M344 76.171c-35.346 0-64 28.654-64 64 0 35.346 28.654 64 64 64 35.346 0 64-28.654 64-64-.04-35.33-28.67-63.961-64-64zm0 112c-26.51 0-48-21.49-48-48s21.49-48 48-48 48 21.49 48 48c-.031 26.497-21.503 47.969-48 48zM234.112 354.059h16v24h-16zm-26.992-78.568c-49.385-19.292-73.78-74.966-54.487-124.351a96.005 96.005 0 0138.279-46.313l-8.552-13.536c-52.336 32.971-68.035 102.126-35.064 154.462a112.001 112.001 0 0054.016 44.626c19.752 7.568 32.795 26.528 32.8 47.68h16c.025-27.752-17.077-52.641-42.992-62.568zm186.992 22.568h56v16h-56zM380.993 352.2l10.241-12.293 48.004 39.994-10.242 12.292zm-34.881 9.859h16v56h-16zM8.169 138.29l63.996-15.996 3.878 15.513-63.996 15.998zm13.289-81.718l9.295-13.013 55.995 39.996-9.294 13.013zM90.003 4.03l15.5-3.963 16.363 63.995-15.5 3.963z"></path>
  </symbol>
  <symbol xmlns="http://www.w3.org/2000/svg" viewBox="0 0 64 64" id="database-storage">
    <path d="M43.82 20.01A2.986 2.986 0 0041 18h-1v-2h1a3.009 3.009 0 003-3V5a3.009 3.009 0 00-3-3H5a3.009 3.009 0 00-3 3v8a3.009 3.009 0 003 3h1v2H5a3.009 3.009 0 00-3 3v8a3.009 3.009 0 003 3h1v2H5a3.009 3.009 0 00-3 3v8a3.009 3.009 0 003 3h19v8c0 3.94 9.56 6 19 6s19-2.06 19-6V26c0-3.83-9.01-5.87-18.18-5.99zM5 14a1 1 0 01-1-1V5a1 1 0 011-1h36a1 1 0 011 1v8a1 1 0 01-1 1zm33 2v2h-4v-2zm-6 0v2H14v-2zm-20 0v2H8v-2zm12 30H5a1 1 0 01-1-1v-8a1 1 0 011-1h19zM8 34v-2h4v2zm16 0H14v-2h10zm0-8v4H5a1 1 0 01-1-1v-8a1 1 0 011-1h36a.7.7 0 01.14.03C32.34 20.28 24 22.32 24 26zm36 30c0 1.36-6 4-17 4s-17-2.64-17-4v-7.18C29.29 50.91 36.16 52 43 52s13.71-1.09 17-3.18zm0-10c0 1.36-6 4-17 4s-17-2.64-17-4v-7.18C29.29 40.91 36.16 42 43 42s13.71-1.09 17-3.18zm0-10c0 1.36-6 4-17 4s-17-2.64-17-4v-7.18C29.29 30.91 36.16 32 43 32s13.71-1.09 17-3.18zm-17-6c-11 0-17-2.64-17-4s6-4 17-4 17 2.64 17 4-6 4-17 4z"></path>
    <path d="M42 35h2v2h-2zm0 11h2v2h-2zm0 9h2v2h-2zM11 22H7a1 1 0 00-1 1v4a1 1 0 001 1h4a1 1 0 001-1v-4a1 1 0 00-1-1zm-1 4H8v-2h2zm9-4h-4a1 1 0 00-1 1v4a1 1 0 001 1h4a1 1 0 001-1v-4a1 1 0 00-1-1zm-1 4h-2v-2h2zM11 6H7a1 1 0 00-1 1v4a1 1 0 001 1h4a1 1 0 001-1V7a1 1 0 00-1-1zm-1 4H8V8h2zm9-4h-4a1 1 0 00-1 1v4a1 1 0 001 1h4a1 1 0 001-1V7a1 1 0 00-1-1zm-1 4h-2V8h2zm4-4h14v2H22zm16 0h2v2h-2zm-16 4h14v2H22zm16 0h2v2h-2zM11 38H7a1 1 0 00-1 1v4a1 1 0 001 1h4a1 1 0 001-1v-4a1 1 0 00-1-1zm-1 4H8v-2h2zm9-4h-4a1 1 0 00-1 1v4a1 1 0 001 1h4a1 1 0 001-1v-4a1 1 0 00-1-1zm-1 4h-2v-2h2z"></path>
  </symbol>
  <symbol xmlns="http://www.w3.org/2000/svg" viewBox="0 0 64 64" id="royal-palace">
    <path d="M26 57h12v7H26zm3-14h6v4h-6zM0 56.962V64h24v-7H.188A.95.95 0 010 56.962zM40 49v6h6a1 1 0 010 2h-6v7h24V49zm15 6h1a1 1 0 010 2h-1a1 1 0 010-2zm-5 0h1a1 1 0 010 2h-1a1 1 0 010-2z"></path>
    <path d="M55 47v-8H9v8h6v-5a1 1 0 012 0v5h4v-5a1 1 0 012 0v5h4v-5a1 1 0 011-1h8a1 1 0 011 1v5h4v-5a1 1 0 012 0v5h4v-5a1 1 0 012 0v5zM2 37h60a1 1 0 00.588-1.809L54.075 29H10v-.055l-8.588 6.246A1 1 0 002 37zM0 49v6.038A.95.95 0 01.188 55H24v-6zm36 0H26v6h12v-6zM11.762 18.167a6.991 6.991 0 003.278.81h33.92a7.018 7.018 0 003.352-.855L61.755 12H46V1a1 1 0 00-2 0v4H20V1a1 1 0 00-2 0v11H2.473zm37.198 2.81H15.04a8.954 8.954 0 01-1.04-.065V27h8v-4a1 1 0 012 0v4h7v-4a1 1 0 012 0v4h8v-4a1 1 0 012 0v4h7v-6.089a8.872 8.872 0 01-1.04.066zm4.375-1.138a9.4 9.4 0 01-1.335.589v5.327c7.1-2.258 10.188-10.2 10.826-12.066zM12 20.434a8.95 8.95 0 01-1.27-.556l-9.622-6.385C1.585 14.952 4.641 23.415 12 25.755z"></path>
  </symbol>
  <symbol xmlns="http://www.w3.org/2000/svg" viewBox="0 0 512 512" id="antenna">
    <path d="M414.289 359.474L278.358 223.543l13.121-13.121a26.262 26.262 0 0010.216 2.057c14.565 0 26.416-11.851 26.416-26.416s-11.851-26.416-26.416-26.416-26.416 11.851-26.416 26.416c0 3.62.733 7.072 2.057 10.217l-13.12 13.12L128.285 73.47c-3.906-3.904-10.236-3.904-14.143 0-40.085 40.086-62.162 93.383-62.162 150.073 0 49.094 16.568 95.636 47.039 133.264l-27.542 92.929c-19.223 10.469-34.822 27.271-43.702 48.388a9.995 9.995 0 00.889 9.409A9.998 9.998 0 0036.993 512h163.352a9.996 9.996 0 008.329-4.467 9.995 9.995 0 00.889-9.409c-8.774-20.866-24.106-37.523-43.016-48.017v-38.126c30.517 15.792 64.087 23.698 97.669 23.698 54.342 0 108.702-20.692 150.073-62.063a10.003 10.003 0 000-14.142zM301.695 179.646a6.423 6.423 0 016.416 6.416 6.423 6.423 0 01-6.416 6.416 6.423 6.423 0 01-6.416-6.416 6.423 6.423 0 016.416-6.416zM114.728 374.188a212.353 212.353 0 0031.818 26.001v41.557a98.859 98.859 0 00-51.502-1.142l19.684-66.416zM183.586 492H53.752c14.446-21.205 38.549-34.263 64.917-34.263S169.14 470.795 183.586 492zm80.63-76.312c-49.222-.004-98.459-18.742-135.931-56.214-36.308-36.308-56.305-84.583-56.305-135.931 0-48.001 17.474-93.315 49.413-128.681l271.5 271.501c-36.458 32.891-82.557 49.329-128.677 49.325zm75.968-346.263c-5.224-1.787-10.91 1.001-12.697 6.227-1.787 5.226 1.001 10.911 6.227 12.697 40.885 13.979 68.354 52.422 68.354 95.661 0 5.522 4.478 10 10 10s10-4.478 10-10c-.001-51.792-32.907-97.84-81.884-114.585zm-38.872-6.486h-.315c-5.522 0-10 4.478-10 10s4.478 10 10 10h.315c5.522 0 10-4.478 10-10s-4.478-10-10-10zm183.694 120.902c-.04-5.488-4.502-9.925-10-9.925-5.522 0-10 4.478-10 10l.001.166c.039 5.489 4.501 9.928 10 9.928 5.522 0 10-4.478 10-10l-.001-.169zm-5.245-43.626c-9.604-39.328-32.438-74.944-64.298-100.286C382.625 13.807 343.044 0 300.997 0c-5.522 0-10 4.478-10 10s4.478 10 10 10c75.848 0 141.368 51.385 159.334 124.959 1.116 4.568 5.204 7.63 9.707 7.63.785 0 1.583-.093 2.38-.287 5.365-1.311 8.652-6.722 7.343-12.087zm-178.764-22.516c-5.522 0-10 4.478-10 10s4.478 10 10 10c25.535 0 46.31 20.774 46.31 46.311 0 5.522 4.478 10 10 10s10-4.478 10-10c0-36.563-29.746-66.311-66.31-66.311z"></path>
    <path d="M320.513 369.188c-1.653-5.271-7.268-8.203-12.534-6.55-52.048 16.323-108.314 2.525-146.85-36.01-3.906-3.904-10.236-3.904-14.143 0-3.905 3.905-3.905 10.237 0 14.143 31.647 31.644 73.806 48.62 117.077 48.62 16.647 0 33.46-2.513 49.9-7.669 5.271-1.653 8.202-7.265 6.55-12.534z"></path>
  </symbol>
  <symbol xmlns="http://www.w3.org/2000/svg" viewBox="0 0 74 74" id="square-ruler">
    <path d="M71 72H3a1 1 0 01-1-1V3a1 1 0 011.707-.707l68 68A1 1 0 0171 72zM4 70h64.586L4 5.414z"></path>
    <path d="M44.443 61H14a1 1 0 01-1-1V29.556a1 1 0 011.707-.707L45.15 59.293A1 1 0 0144.443 61zM15 59h27.029L15 31.97zm39.531 13a1 1 0 01-1-1v-2.9a1 1 0 012 0V71a1 1 0 01-1 1zm-7 0a1 1 0 01-1-1v-4a1 1 0 012 0v4a1 1 0 01-1 1zm-7 0a1 1 0 01-1-1v-2.9a1 1 0 012 0V71a1 1 0 01-1 1zm-7 0a1 1 0 01-1-1v-4a1 1 0 012 0v4a1 1 0 01-1 1zm-7 0a1 1 0 01-1-1v-2.9a1 1 0 012 0V71a1 1 0 01-1 1zm-7 0a1 1 0 01-1-1v-4a1 1 0 012 0v4a1 1 0 01-1 1zm-7 0a1 1 0 01-1-1v-2.9a1 1 0 012 0V71a1 1 0 01-1 1zM5.9 61H3a1 1 0 010-2h2.9a1 1 0 110 2zM7 54H3a1 1 0 010-2h4a1 1 0 010 2zm-1.1-7H3a1 1 0 010-2h2.9a1 1 0 110 2zM7 40H3a1 1 0 010-2h4a1 1 0 010 2zm-1.1-7H3a1 1 0 010-2h2.9a1 1 0 110 2zM7 26H3a1 1 0 010-2h4a1 1 0 010 2zm-1.1-7H3a1 1 0 010-2h2.9a1 1 0 110 2z"></path>
  </symbol>
  <symbol xmlns="http://www.w3.org/2000/svg" viewBox="0 0 488.751 488.751" id="hammer">
    <path d="M486.411 166.398l-.006-.006-17.944-17.944a23.823 23.823 0 00-16.968-7.032h-20.688a8 8 0 01-5.656-2.336l-6.624-6.632a8 8 0 01-.006-11.314l.006-.006 5.656-5.656a8 8 0 000-11.312l-56.392-56.352a7.983 7.983 0 00-1.216-.992 152.898 152.898 0 00-79.32-25.704l-111.68-4.136a8 8 0 00-3.552 15.304l105.6 47.136a120.488 120.488 0 0127.736 19.2l-28.216 28.216a8 8 0 000 11.312L11.228 403.992c-15.347 15.89-14.907 41.213.983 56.56 15.501 14.971 40.076 14.971 55.577 0l265.88-265.872a8 8 0 0011.312 0l16.976-16.968a8.185 8.185 0 0111.312 0l6.624 6.624a7.94 7.94 0 012.344 5.656v20.688a23.809 23.809 0 007.032 16.968l17.936 17.944a8 8 0 0011.314.006l.006-.006 67.88-67.88a8 8 0 00.007-11.314zM56.484 449.24c-9.373 9.373-24.571 9.373-33.944 0-9.373-9.373-9.373-24.571 0-33.944l265.872-265.872 33.944 33.944L56.484 449.24zM412.86 228.624l-12.272-12.288a8.06 8.06 0 01-2.344-5.656v-20.688a23.843 23.843 0 00-7.032-16.968l-6.624-6.632c-9.372-9.369-24.564-9.369-33.936 0l-11.32 11.312-45.256-45.256 28.288-28.288a8 8 0 000-11.312l-2.264-2.264a136.888 136.888 0 00-35.656-25.6l-68.232-30.488 70.448 2.608a136.799 136.799 0 0170.4 22.584l50.136 50.136c-9.352 9.382-9.352 24.562 0 33.944l6.632 6.632a23.849 23.849 0 0016.968 7.024h20.688a8.06 8.06 0 015.656 2.344l12.288 12.288-56.568 56.568z"></path>
  </symbol>
</svg>